<svg width="161" height="36" viewBox="0 0 161 36" fill="none" xmlns="http://www.w3.org/2000/svg">
<path d="M1.29 3H6.42V7.47H1.29V3ZM1.29 9.33H6.42V27H1.29V9.33ZM24.4151 9.03C29.1251 9.03 33.5351 10.71 33.5951 17.22L33.5351 27H28.3751V19.17C28.3751 15.42 27.1151 13.47 22.8851 13.47C19.4351 13.47 15.7151 15.24 14.1251 17.1V27H8.99508V9.33H14.1251V12.42C16.6451 10.44 20.1251 9.03 24.4151 9.03ZM47.6245 27.3C40.3045 27.3 35.3845 24.66 35.3845 18.18C35.3845 11.67 40.3045 9.03 47.6245 9.03C54.9145 9.03 59.8645 11.67 59.8645 18.18C59.8645 24.66 54.9145 27.3 47.6245 27.3ZM47.6245 23.01C52.3645 23.01 54.7045 21.84 54.7045 18.18C54.7045 14.49 52.3645 13.32 47.6245 13.32C42.8545 13.32 40.5145 14.49 40.5145 18.18C40.5145 21.84 42.8545 23.01 47.6245 23.01Z" fill="white"/>
<path d="M83.79 6V10.53H73.59V27H68.19V10.53H57.99V6H83.79ZM94.0999 23.13C97.6399 23.13 99.7999 22.47 101.09 20.67H106.19C105.02 25.17 100.64 27.3 94.0999 27.3C87.3799 27.3 82.1599 24.66 82.1599 18.18C82.1599 11.67 87.2299 9.03 94.3999 9.03C101.12 9.03 106.49 11.34 106.49 19.38H87.4099C87.9799 22.2 90.6799 23.13 94.0999 23.13ZM94.3699 12.93C90.8599 12.93 88.3999 13.62 87.5899 16.11H101C100.13 13.62 97.6099 12.93 94.3699 12.93ZM107.97 18.18C107.97 11.67 112.89 9.03 120.21 9.03C126.81 9.03 131.46 11.19 132.3 16.38H127.05C126.36 14.1 123.93 13.32 120.21 13.32C115.8 13.32 113.1 14.49 113.1 18.18C113.1 21.84 115.8 23.01 120.21 23.01C123.93 23.01 126.36 22.23 127.05 19.95H132.3C131.46 25.14 126.81 27.3 120.21 27.3C112.89 27.3 107.97 24.66 107.97 18.18ZM149.677 9.03C154.387 9.03 158.797 10.71 158.857 17.22L158.797 27H153.637V19.17C153.637 15.42 152.377 13.47 148.147 13.47C144.697 13.47 140.977 15.24 139.387 17.1V27H134.257V3H139.387V12.42C141.907 10.44 145.387 9.03 149.677 9.03Z" fill="#07EC63"/>
</svg>
